<?xml version="1.0" encoding="UTF-8" standalone="no"?>
<!-- Created with Inkscape (http://www.inkscape.org/) -->

<svg
   xmlns:dc="http://purl.org/dc/elements/1.1/"
   xmlns:cc="http://creativecommons.org/ns#"
   xmlns:rdf="http://www.w3.org/1999/02/22-rdf-syntax-ns#"
   xmlns:svg="http://www.w3.org/2000/svg"
   xmlns="http://www.w3.org/2000/svg"
   xmlns:xlink="http://www.w3.org/1999/xlink"
   xmlns:sodipodi="http://sodipodi.sourceforge.net/DTD/sodipodi-0.dtd"
   xmlns:inkscape="http://www.inkscape.org/namespaces/inkscape"
   width="297mm"
   height="210mm"
   viewBox="0 0 297 210"
   version="1.1"
   id="svg8"
   inkscape:version="0.92.2 (5c3e80d, 2017-08-06)"
   sodipodi:docname="jupiter.svg">
  <defs
     id="defs2">
    <linearGradient
       inkscape:collect="always"
       id="linearGradient1387">
      <stop
         style="stop-color:#000000;stop-opacity:1;"
         offset="0"
         id="stop1383" />
      <stop
         style="stop-color:#000000;stop-opacity:0;"
         offset="1"
         id="stop1385" />
    </linearGradient>
    <linearGradient
       inkscape:collect="always"
       xlink:href="#linearGradient1387"
       id="linearGradient1391"
       x1="159.13599"
       y1="202.89934"
       x2="269.93396"
       y2="202.11919"
       gradientUnits="userSpaceOnUse" />
  </defs>
  <sodipodi:namedview
     id="base"
     pagecolor="#ffffff"
     bordercolor="#666666"
     borderopacity="1.0"
     inkscape:pageopacity="0.0"
     inkscape:pageshadow="2"
     inkscape:zoom="0.67828316"
     inkscape:cx="485.88353"
     inkscape:cy="542.71552"
     inkscape:document-units="mm"
     inkscape:current-layer="layer1"
     showgrid="false"
     inkscape:window-width="1366"
     inkscape:window-height="705"
     inkscape:window-x="-8"
     inkscape:window-y="-8"
     inkscape:window-maximized="1"
     inkscape:measure-start="0,0"
     inkscape:measure-end="0,0" />
  <metadata
     id="metadata5">
    <rdf:RDF>
      <cc:Work
         rdf:about="">
        <dc:format>image/svg+xml</dc:format>
        <dc:type
           rdf:resource="http://purl.org/dc/dcmitype/StillImage" />
        <dc:title></dc:title>
      </cc:Work>
    </rdf:RDF>
  </metadata>
  <g
     inkscape:label="Capa 1"
     inkscape:groupmode="layer"
     id="layer1"
     transform="translate(0,-87)">
    <rect
       style="opacity:1;fill:#000055;fill-opacity:1;fill-rule:nonzero;stroke:none;stroke-width:1.20000005;stroke-linecap:butt;stroke-linejoin:round;stroke-miterlimit:4;stroke-dasharray:none;stroke-dashoffset:0;stroke-opacity:1;paint-order:markers stroke fill"
       id="rect1436"
       width="297.62952"
       height="211.81235"
       x="0.39007798"
       y="86.747978" />
    <text
       xml:space="preserve"
       style="font-style:normal;font-variant:normal;font-weight:normal;font-stretch:normal;font-size:10.58333302px;line-height:1.25;font-family:Castellar;-inkscape-font-specification:Castellar;letter-spacing:0px;word-spacing:0px;fill:#000000;fill-opacity:1;stroke:none;stroke-width:0.26458332"
       x="165.53865"
       y="179.67818"
       id="text1057"><tspan
         sodipodi:role="line"
         id="tspan1055"
         x="165.53865"
         y="191.5269"
         style="stroke-width:0.26458332"></tspan></text>
    <text
       xml:space="preserve"
       style="font-style:normal;font-variant:normal;font-weight:normal;font-stretch:normal;font-size:10.58333302px;line-height:1.25;font-family:Castellar;-inkscape-font-specification:Castellar;letter-spacing:0px;word-spacing:0px;fill:#000000;fill-opacity:1;stroke:none;stroke-width:0.26458332"
       x="112.27385"
       y="201.61075"
       id="text1069"><tspan
         sodipodi:role="line"
         id="tspan1067"
         x="112.27385"
         y="213.45947"
         style="stroke-width:0.26458332"></tspan></text>
    <text
       xml:space="preserve"
       style="font-style:normal;font-variant:normal;font-weight:normal;font-stretch:normal;font-size:10.58333302px;line-height:1.25;font-family:Castellar;-inkscape-font-specification:Castellar;letter-spacing:0px;word-spacing:0px;fill:#000000;fill-opacity:1;stroke:none;stroke-width:0.26458332"
       x="166.23492"
       y="201.61075"
       id="text1089"><tspan
         sodipodi:role="line"
         id="tspan1087"
         x="166.23492"
         y="213.45947"
         style="stroke-width:0.26458332"></tspan></text>
    <text
       xml:space="preserve"
       style="font-style:normal;font-variant:normal;font-weight:normal;font-stretch:normal;font-size:10.58333302px;line-height:1.25;font-family:Castellar;-inkscape-font-specification:Castellar;letter-spacing:0px;word-spacing:0px;fill:#000000;fill-opacity:1;stroke:none;stroke-width:0.26458332"
       x="193.81778"
       y="151.47917"
       id="text1101"><tspan
         sodipodi:role="line"
         id="tspan1099"
         x="193.81778"
         y="163.3279"
         style="stroke-width:0.26458332"></tspan></text>
    <path
       style="opacity:1;fill:#ff6600;fill-opacity:1;fill-rule:nonzero;stroke:none;stroke-width:1.20000005;stroke-linecap:butt;stroke-linejoin:round;stroke-miterlimit:4;stroke-dasharray:none;stroke-dashoffset:0;stroke-opacity:1;paint-order:markers stroke fill"
       id="path1393"
       sodipodi:type="arc"
       sodipodi:cx="148.65536"
       sodipodi:cy="183.29225"
       sodipodi:rx="67.996315"
       sodipodi:ry="66.508293"
       sodipodi:start="0"
       sodipodi:end="6.2797121"
       sodipodi:open="true"
       d="m 216.65168,183.29225 a 67.996315,66.508293 0 0 1 -67.93727,66.50827 67.996315,66.508293 0 0 1 -68.055257,-66.39277 67.996315,66.508293 0 0 1 67.819087,-66.62357 67.996315,66.508293 0 0 1 68.17303,66.27707" />
    <path
       style="opacity:1;fill:#d45500;fill-opacity:1;fill-rule:nonzero;stroke:none;stroke-width:1.20000005;stroke-linecap:butt;stroke-linejoin:round;stroke-miterlimit:4;stroke-dasharray:none;stroke-dashoffset:0;stroke-opacity:1;paint-order:markers stroke fill"
       d="M 89.305914,215.50583 C 78.807769,196.77165 78.029489,174.33159 87.2117,155.12368 c 6.304428,-13.188 17.26014,-24.23996 30.67397,-30.94344 15.17573,-7.58399 33.43339,-9.29706 49.64504,-4.6581 4.65273,1.33138 11.08387,3.99516 14.90205,6.17241 3.68173,2.09946 9.12688,5.89809 9.31906,6.50115 0.0697,0.21897 -0.57965,1.15425 -1.44318,2.07841 -0.89199,0.95463 -1.47968,1.91527 -1.36082,2.2244 0.11549,0.30034 0.0381,0.43858 -0.17269,0.30856 -0.42866,-0.26438 -0.41615,-0.37755 -0.43263,3.91272 -0.0125,3.26149 0.0781,3.50429 2.6115,6.9918 0.68911,0.94866 1.40918,4.05331 0.86179,3.7157 -0.3749,-0.23124 -1.08246,1.39826 -1.19467,2.7513 -0.0406,0.48923 -0.18442,0.82126 -0.31965,0.73785 -0.13522,-0.0834 -0.63615,0.2112 -1.11316,0.6547 -0.47699,0.44349 -1.66422,1.0457 -2.63827,1.33825 -0.97404,0.29255 -2.04439,0.76926 -2.37855,1.05935 -0.33416,0.29009 -1.26112,0.73686 -2.05991,0.99282 -0.79878,0.25595 -1.38089,0.58152 -1.29359,0.72346 0.0874,0.14196 -0.33752,0.27616 -0.94408,0.29823 -1.25403,0.0457 -3.20017,1.17433 -2.88958,1.67585 0.1133,0.18296 -0.15132,0.23941 -0.58807,0.12542 -0.51751,-0.13505 -1.39385,0.22263 -2.51626,1.02704 -1.61778,1.15944 -1.85657,1.2179 -3.93915,0.96458 -1.21934,-0.14832 -2.86199,-0.59431 -3.65036,-0.99107 -0.78837,-0.39677 -1.97214,-0.7214 -2.63062,-0.7214 -0.67566,0 -1.09625,-0.16304 -0.96544,-0.37425 0.12746,-0.20584 -0.16651,-0.45012 -0.65331,-0.54284 -3.69519,-0.70387 -7.38828,-1.59865 -9.12922,-2.2119 -1.52952,-0.53876 -3.12732,-0.72569 -6.18149,-0.72321 -5.11079,0.004 -8.23966,0.35208 -7.9128,0.87989 0.14351,0.23172 0.0504,0.2737 -0.22726,0.10245 -0.57544,-0.35492 -2.04695,0.88672 -1.70508,1.43875 0.14594,0.23565 0.0508,0.27457 -0.23716,0.097 -0.61691,-0.3805 -3.59414,2.4659 -3.32134,3.17537 0.10831,0.28168 0.0448,0.4183 -0.14121,0.30359 -0.49868,-0.30757 -1.31225,0.82939 -0.97878,1.36786 0.16764,0.27069 0.1228,0.36128 -0.10827,0.21875 -0.4814,-0.29691 -1.77072,1.03847 -1.37956,1.42884 0.15335,0.15304 0.002,0.17239 -0.3355,0.043 -0.41975,-0.16074 -1.02782,0.28578 -1.91994,1.40987 -0.71809,0.90481 -1.31352,1.82563 -1.32318,2.04626 -0.01,0.22064 -0.25391,0.34882 -0.54279,0.28485 -0.61896,-0.13706 -3.53699,2.59252 -3.4014,3.18175 0.0512,0.2225 -0.0796,0.45843 -0.29064,0.52429 -0.66799,0.20843 -2.10595,1.71523 -1.92134,2.01333 0.0974,0.15729 -0.12526,0.2622 -0.49483,0.23313 -0.36957,-0.0291 -0.6353,0.14359 -0.59051,0.38372 0.0448,0.24012 -0.21599,0.41363 -0.57952,0.38555 -0.40736,-0.0314 -0.64063,0.20625 -0.60797,0.61955 0.0301,0.38134 -0.12318,0.56194 -0.35542,0.4187 -0.25699,-0.1585 -0.31407,-0.007 -0.15398,0.40972 0.13992,0.36388 0.10577,0.56994 -0.0759,0.4579 -0.33562,-0.207 -1.44467,0.8099 -1.65022,1.51311 -0.062,0.21205 -0.35876,0.32916 -0.6595,0.26024 -0.35797,-0.082 -0.46678,0.0828 -0.31508,0.47732 0.13825,0.35952 0.0425,0.5656 -0.2373,0.51087 -0.25796,-0.0505 -0.44519,0.20999 -0.41606,0.57881 0.0291,0.36881 -0.078,0.58977 -0.23812,0.49103 -0.41092,-0.25345 -1.6149,1.15459 -1.27625,1.49255 0.15336,0.15304 0.008,0.17444 -0.3236,0.0475 -0.73202,-0.28033 -1.67745,0.74638 -1.2793,1.38929 0.19411,0.31344 0.12158,0.36052 -0.22557,0.14643 -0.37464,-0.23107 -0.44355,-0.1384 -0.25728,0.346 0.17144,0.44587 0.10845,0.57159 -0.19317,0.38555 -0.30163,-0.18602 -0.36462,-0.0603 -0.19318,0.38556 0.17145,0.44586 0.10846,0.57159 -0.19317,0.38556 -0.30162,-0.18604 -0.36461,-0.0603 -0.19317,0.38555 0.17144,0.44587 0.10845,0.57159 -0.19317,0.38555 -0.30163,-0.18602 -0.36462,-0.0603 -0.19318,0.38556 0.13992,0.36388 0.10578,0.56994 -0.0759,0.4579 -0.47751,-0.29453 -1.71679,1.19338 -1.40853,1.69114 0.14286,0.23067 0.0466,0.37172 -0.21395,0.31347 -0.62409,-0.13959 -2.37014,2.40193 -2.11178,3.07385 0.11062,0.28766 0.0489,0.42917 -0.13702,0.31447 -0.49868,-0.30758 -1.31225,0.82939 -0.97878,1.36785 0.17638,0.28479 0.12247,0.36108 -0.14052,0.19887 -0.52828,-0.32582 -1.37463,1.15388 -1.00312,1.75377 0.17838,0.28802 0.0962,0.32948 -0.24095,0.12155 -0.37464,-0.23107 -0.44356,-0.13839 -0.25729,0.34602 0.17144,0.44586 0.10845,0.57158 -0.19318,0.38555 -0.30162,-0.18603 -0.36461,-0.0603 -0.19317,0.38555 0.17145,0.44587 0.10846,0.5716 -0.19317,0.38556 -0.30162,-0.18603 -0.36461,-0.0603 -0.19317,0.38555 0.14022,0.36468 0.0955,0.56359 -0.0997,0.44322 -0.45922,-0.28324 -0.93073,1.19121 -0.56815,1.77668 0.18479,0.29838 0.10808,0.3439 -0.22909,0.13595 -0.37763,-0.23292 -0.4513,-0.10049 -0.28889,0.51929 0.1199,0.45756 0.0724,0.74211 -0.10562,0.63233 -0.54533,-0.33634 -0.999,1.01486 -1.25457,3.73662 -0.0334,0.35552 -0.226845,0.54394 -0.42991,0.41869 -0.218771,-0.13493 -0.25543,0.0682 -0.08996,0.4985 0.153584,0.39942 0.151258,0.59849 -0.0052,0.44239 -0.356236,-0.35551 -1.37812,1.99273 -1.078042,2.47727 0.121012,0.1954 -0.01022,0.3076 -0.291625,0.24934 -0.307826,-0.0637 -0.500244,0.232 -0.48303,0.74239 0.01572,0.46658 -0.08711,0.77695 -0.228542,0.68972 -0.311619,-0.1922 -2.929511,2.44372 -2.797527,2.81679 0.0513,0.14503 -0.209475,0.26552 -0.579514,0.26776 -0.37004,0.002 -0.636154,0.20052 -0.591364,0.44065 0.04479,0.24012 -0.215992,0.41362 -0.579515,0.38555 -0.363521,-0.0281 -0.632048,0.12247 -0.596725,0.33452 0.03533,0.21206 -0.357564,0.41068 -0.873086,0.4414 -0.769101,0.0459 -1.176884,-0.37169 -2.272272,-2.32643 z"
       id="path1401"
       inkscape:connector-curvature="0" />
    <path
       style="opacity:1;fill:#ffcc00;fill-opacity:1;fill-rule:nonzero;stroke:none;stroke-width:1.20000005;stroke-linecap:butt;stroke-linejoin:round;stroke-miterlimit:4;stroke-dasharray:none;stroke-dashoffset:0;stroke-opacity:1;paint-order:markers stroke fill"
       d="m 213.73042,170.19334 c 20.72871,-0.24198 28.45576,1.78112 29.26973,6.22028 l 0.009,0.0535 c 1.33114,8.51559 -39.06944,21.88084 -90.26573,29.86154 -51.19635,7.98075 -86.486123,7.55874 -87.906942,-0.94289 -0.688738,-4.1491 0.228485,-9.69475 17.619404,-15.38176 -33.594518,8.55517 -52.088549,17.26476 -51.113899,23.16562 1.627767,9.65409 57.058547,9.04169 123.846487,-1.36827 66.78756,-10.40988 119.67347,-26.68026 118.16092,-36.35225 l -0.0105,-0.0609 c -1.16905,-6.28734 -21.07719,-8.03375 -59.60839,-5.19486 z"
       id="path1403"
       inkscape:connector-curvature="0"
       sodipodi:nodetypes="cccscccsccc" />
  </g>
</svg>
