<?xml version="1.0" encoding="UTF-8" standalone="no"?>
<!-- Created with Inkscape (http://www.inkscape.org/) -->

<svg
   xmlns:dc="http://purl.org/dc/elements/1.1/"
   xmlns:cc="http://creativecommons.org/ns#"
   xmlns:rdf="http://www.w3.org/1999/02/22-rdf-syntax-ns#"
   xmlns:svg="http://www.w3.org/2000/svg"
   xmlns="http://www.w3.org/2000/svg"
   xmlns:xlink="http://www.w3.org/1999/xlink"
   xmlns:sodipodi="http://sodipodi.sourceforge.net/DTD/sodipodi-0.dtd"
   xmlns:inkscape="http://www.inkscape.org/namespaces/inkscape"
   width="297mm"
   height="210mm"
   viewBox="0 0 297 210"
   version="1.1"
   id="svg8"
   inkscape:version="0.92.2 (5c3e80d, 2017-08-06)"
   sodipodi:docname="lleva.svg">
  <defs
     id="defs2">
    <linearGradient
       inkscape:collect="always"
       id="linearGradient1387">
      <stop
         style="stop-color:#000000;stop-opacity:1;"
         offset="0"
         id="stop1383" />
      <stop
         style="stop-color:#000000;stop-opacity:0;"
         offset="1"
         id="stop1385" />
    </linearGradient>
    <linearGradient
       inkscape:collect="always"
       xlink:href="#linearGradient1387"
       id="linearGradient1391"
       x1="159.13599"
       y1="202.89934"
       x2="269.93396"
       y2="202.11919"
       gradientUnits="userSpaceOnUse" />
  </defs>
  <sodipodi:namedview
     id="base"
     pagecolor="#ffffff"
     bordercolor="#666666"
     borderopacity="1.0"
     inkscape:pageopacity="0.0"
     inkscape:pageshadow="2"
     inkscape:zoom="0.67828316"
     inkscape:cx="587.74341"
     inkscape:cy="383.38433"
     inkscape:document-units="mm"
     inkscape:current-layer="layer1"
     showgrid="false"
     inkscape:window-width="1366"
     inkscape:window-height="705"
     inkscape:window-x="-8"
     inkscape:window-y="-8"
     inkscape:window-maximized="1"
     inkscape:measure-start="0,0"
     inkscape:measure-end="0,0" />
  <metadata
     id="metadata5">
    <rdf:RDF>
      <cc:Work
         rdf:about="">
        <dc:format>image/svg+xml</dc:format>
        <dc:type
           rdf:resource="http://purl.org/dc/dcmitype/StillImage" />
        <dc:title></dc:title>
      </cc:Work>
    </rdf:RDF>
  </metadata>
  <g
     inkscape:label="Capa 1"
     inkscape:groupmode="layer"
     id="layer1"
     transform="translate(0,-87)">
    <text
       xml:space="preserve"
       style="font-style:normal;font-variant:normal;font-weight:normal;font-stretch:normal;font-size:10.58333302px;line-height:1.25;font-family:Castellar;-inkscape-font-specification:Castellar;letter-spacing:0px;word-spacing:0px;fill:#000000;fill-opacity:1;stroke:none;stroke-width:0.26458332"
       x="165.53865"
       y="179.67818"
       id="text1057"><tspan
         sodipodi:role="line"
         id="tspan1055"
         x="165.53865"
         y="191.5269"
         style="stroke-width:0.26458332"></tspan></text>
    <text
       xml:space="preserve"
       style="font-style:normal;font-variant:normal;font-weight:normal;font-stretch:normal;font-size:10.58333302px;line-height:1.25;font-family:Castellar;-inkscape-font-specification:Castellar;letter-spacing:0px;word-spacing:0px;fill:#000000;fill-opacity:1;stroke:none;stroke-width:0.26458332"
       x="112.27385"
       y="201.61075"
       id="text1069"><tspan
         sodipodi:role="line"
         id="tspan1067"
         x="112.27385"
         y="213.45947"
         style="stroke-width:0.26458332"></tspan></text>
    <text
       xml:space="preserve"
       style="font-style:normal;font-variant:normal;font-weight:normal;font-stretch:normal;font-size:10.58333302px;line-height:1.25;font-family:Castellar;-inkscape-font-specification:Castellar;letter-spacing:0px;word-spacing:0px;fill:#000000;fill-opacity:1;stroke:none;stroke-width:0.26458332"
       x="166.23492"
       y="201.61075"
       id="text1089"><tspan
         sodipodi:role="line"
         id="tspan1087"
         x="166.23492"
         y="213.45947"
         style="stroke-width:0.26458332"></tspan></text>
    <text
       xml:space="preserve"
       style="font-style:normal;font-variant:normal;font-weight:normal;font-stretch:normal;font-size:10.58333302px;line-height:1.25;font-family:Castellar;-inkscape-font-specification:Castellar;letter-spacing:0px;word-spacing:0px;fill:#000000;fill-opacity:1;stroke:none;stroke-width:0.26458332"
       x="193.81778"
       y="151.47917"
       id="text1101"><tspan
         sodipodi:role="line"
         id="tspan1099"
         x="193.81778"
         y="163.3279"
         style="stroke-width:0.26458332"></tspan></text>
    <rect
       style="opacity:1;fill:#80b3ff;fill-opacity:1;fill-rule:nonzero;stroke:none;stroke-width:1.20000005;stroke-linecap:butt;stroke-linejoin:round;stroke-miterlimit:4;stroke-dasharray:none;stroke-dashoffset:0;stroke-opacity:1;paint-order:markers stroke fill"
       id="rect1353"
       width="298.40967"
       height="210.64214"
       x="-1.560312"
       y="86.357887" />
    <path
       style="fill:url(#linearGradient1391);fill-opacity:1;stroke:none;stroke-width:0.26458332px;stroke-linecap:butt;stroke-linejoin:miter;stroke-opacity:1"
       d="m 147.44948,257.60213 c 12.17942,-3.56834 29.01086,-16.34418 24.57491,-29.25585 l -12.21142,-12.0529 0.25361,-57.37992 13.51812,-19.50496 -3.5107,-10.92219 -10.93802,-7.5952 138.10344,83.27033 -0.39007,80.74614 C 252.01661,265.87132 199.29302,262.61679 147.44948,257.60213 Z"
       id="path1355"
       inkscape:connector-curvature="0"
       sodipodi:nodetypes="cccccccccc" />
    <path
       style="opacity:1;fill:#666666;fill-opacity:1;fill-rule:nonzero;stroke:none;stroke-width:1.20000005;stroke-linecap:butt;stroke-linejoin:round;stroke-miterlimit:4;stroke-dasharray:none;stroke-dashoffset:0;stroke-opacity:1;paint-order:markers stroke fill"
       d="m 159.13598,120.89111 c 2.55308,2.218 6.86473,6.71849 7.20889,7.72605 0.44556,1.30448 -0.81165,11.2605 -1.56798,12.41724 -0.75634,1.15676 -9.4329,6.39372 -10.8216,6.53167 -1.38869,0.13796 -10.95142,-3.2869 -11.92675,-4.27161 -0.97534,-0.98472 -4.2232,-10.49276 -4.05074,-11.85864 0.1665,-1.31866 5.30947,-9.22108 6.73612,-10.41259 a 23.599718,20.053541 0.25323719 0 0 -16.15991,18.94465 23.599718,20.053541 0.25323719 0 0 15.51935,18.8821 l -0.25303,57.24814 a 23.599716,21.454292 0.25323719 0 0 -15.90292,20.19534 23.599716,21.454292 0.25323719 0 0 23.52538,21.52098 23.599716,21.454292 0.25323719 0 0 23.67351,-21.34957 l 3.3e-4,-0.0744 a 23.599716,21.454292 0.25323719 0 0 -15.30366,-20.09709 l 0.25361,-57.37992 a 23.599718,20.053541 0.25323719 0 0 15.6863,-18.77209 l 3.1e-4,-0.0692 a 23.599718,20.053541 0.25323719 0 0 -16.61721,-19.181 z m -9.75432,102.37232 c 2.98711,0.0965 11.36192,1.51332 12.42016,2.19484 1.20404,0.77539 6.34257,9.23281 6.40886,10.54819 0.0663,1.31539 -4.2014,10.13431 -5.32276,10.99917 -1.12138,0.86485 -11.58232,3.40493 -13.04693,3.168 -1.46462,-0.23693 -10.24057,-5.88875 -10.94554,-7.04904 -0.70498,-1.16031 -1.18845,-10.74818 -0.60293,-11.95814 0.58553,-1.20994 8.75933,-7.51355 10.19444,-7.86202 0.0897,-0.0218 0.21545,-0.0354 0.37277,-0.0418 0.14749,-0.006 0.3228,-0.006 0.52193,3.1e-4 z"
       id="rect1270"
       inkscape:connector-curvature="0" />
  </g>
</svg>
